#!OML:ASF E:\emotionWalksFemale\Project 1\Capture day 1\Session 1\Female1.ASF
:FULLY-SPECIFIED
:DEGREES
1863
root 9.748 15.1316 -35.9726 7.79354 -9.69871 -2.45314
lowerback 16.1328 2.1625 3.53375
upperback -0.0755885 3.76165 2.56365
thorax -9.10191 1.70196 -0.120651
lowerneck -3.18623 -0.179006 -2.47117
upperneck -0.820069 -0.148478 -2.37812
head 0.269113 -0.0829509 -0.318746
rclavicle -1.37161e-014 -1.98785e-014
rhumerus -35.039 0.819602 -70.2287
rradius 30.8348
rwrist 20.9211
rhand -4.18324 -54.0005
rfingers 7.12502
rthumb 21.578 -82.8184
lclavicle -1.37161e-014 -1.98785e-014
lhumerus -50.9672 22.688 56.8535
lradius 39.149
lwrist -10.0273
lhand -4.77195 -30.0977
lfingers 7.12502
lthumb 21.0125 -1.21597
rfemur -3.36965 -1.24895 29.2215
rtibia 22.7008
rfoot -24.7626 -30.9549
rtoes 1.10708
lfemur -38.2359 -14.1277 -5.441
ltibia 29.5959
lfoot -18.3069 21.7954
ltoes -10.0851
1864
root 9.77404 15.1141 -35.9173 7.69106 -9.98324 -2.69809
lowerback 16.5446 2.1623 3.47156
upperback 0.205788 3.76386 2.65564
thorax -9.03632 1.70939 0.000910969
lowerneck -3.94287 -0.126969 -2.7113
upperneck -1.22164 -0.0536301 -2.16123
head 0.270505 -0.0318104 -0.213591
rclavicle 4.7112e-014 1.66979e-014
rhumerus -33.7037 1.11019 -70.5866
rradius 31.4157
rwrist 22.6854
rhand -0.154374 -57.9986
rfingers 7.12502
rthumb 25.4425 -86.3205
lclavicle 4.7112e-014 1.66979e-014
lhumerus -50.3876 23.0693 57.4818
lradius 39.4483
lwrist -9.72528
lhand -4.79417 -30.4084
lfingers 7.12502
lthumb 20.9912 -1.52435
rfemur -2.852 -1.12595 29.2945
rtibia 22.3836
rfoot -24.4472 -31.0139
rtoes -0.0559441
lfemur -38.292 -14.5118 -4.76635
ltibia 29.441
lfoot -18.9149 21.8797
ltoes -6.69092
1865
root 9.80113 15.1092 -35.8475 7.78 -10.5509 -2.91718
lowerback 16.3957 2.3683 3.5222
upperback 0.312681 4.01901 2.52144
thorax -8.81633 1.83139 -0.22319
lowerneck -3.63297 -0.141792 -2.35054
upperneck -2.07127 -0.121051 -2.09974
head -0.038003 -0.0510255 -0.253533
rclavicle -7.55382e-015 1.59028e-015
rhumerus -33.0385 0.800809 -70.9698
rradius 31.0539
rwrist 22.2707
rhand -1.94426 -56.525
rfingers 7.12502
rthumb 23.7269 -85.0803
lclavicle -7.55382e-015 1.59028e-015
lhumerus -49.7811 22.6049 58.0803
lradius 39.6876
lwrist -9.29263
lhand -4.7152 -30.7946
lfingers 7.12502
lthumb 21.067 -1.91902
rfemur -2.56078 -0.912522 29.2454
rtibia 22.1742
rfoot -24.1706 -30.8655
rtoes -1.25987
lfemur -38.2656 -14.5585 -4.27709
ltibia 29.2608
lfoot -19.2097 22.1804
ltoes -4.71671
1866
root 9.82551 15.1044 -35.7911 7.92037 -10.9144 -3.14081
lowerback 16.7924 2.44081 3.57983
upperback 0.193527 4.14035 2.38376
thorax -9.15252 1.87407 -0.453015
lowerneck -3.40092 -0.103682 -2.16063
upperneck -2.75876 -0.0985071 -1.87236
head -0.28187 -0.029295 -0.215371
rclavicle 5.96354e-015 -1.59028e-014
rhumerus -32.4364 0.619819 -71.4934
rradius 30.5617
rwrist 21.883
rhand -4.04247 -55.0588
rfingers 7.12502
rthumb 21.7132 -83.861
lclavicle 5.96354e-015 -1.59028e-014
lhumerus -49.4464 22.0354 58.5943
lradius 40.0836
lwrist -8.75664
lhand -4.80292 -30.7555
lfingers 7.12502
lthumb 20.9828 -1.87047
rfemur -2.36786 -0.823389 29.2537
rtibia 21.9923
rfoot -23.9862 -30.8323
rtoes -2.45665
lfemur -38.2968 -14.1735 -4.07816
ltibia 29.203
lfoot -18.5357 22.6079
ltoes -9.11556
1867
root 9.85466 15.0846 -35.7314 8.15909 -11.135 -3.33045
lowerback 17.877 2.38351 3.87703
upperback -0.401303 4.18178 2.04164
thorax -10.3758 1.83163 -1.06657
lowerneck -3.17127 -0.0649401 -2.00699
upperneck -2.90431 -0.052623 -1.31767
head -0.362168 -0.0053541 -0.0731699
rclavicle -5.98342e-014 9.54166e-015
rhumerus -32.4835 0.355956 -72.2867
rradius 30.3581
rwrist 21.709
rhand -4.93906 -54.5168
rfingers 7.12502
rthumb 20.852 -83.4162
lclavicle -5.98342e-014 9.54166e-015
lhumerus -49.6174 21.0817 58.6265
lradius 40.5194
lwrist -8.30871
lhand -4.8646 -30.7778
lfingers 7.12502
lthumb 20.9235 -1.88626
rfemur -2.28978 -0.808379 29.2277
rtibia 21.8425
rfoot -24.0234 -30.8757
rtoes -3.50577
lfemur -38.6706 -14.3036 -3.57123
ltibia 29.1928
lfoot -18.8546 22.3854
ltoes -5.6763
1868
root 9.88394 15.0768 -35.6685 8.37274 -11.2867 -3.48946
lowerback 18.0613 2.42682 3.78659
upperback -0.35087 4.22445 2.01848
thorax -10.427 1.85414 -1.06001
lowerneck -3.68641 -0.07453 -2.02795
upperneck -3.27104 -0.0529763 -1.06038
head -0.389997 -0.00362633 0.00733855
rclavicle 4.87022e-014 3.10104e-014
rhumerus -31.6107 0.234716 -72.682
rradius 30.5059
rwrist 21.2663
rhand -4.64799 -54.6241
rfingers 7.12502
rthumb 21.1316 -83.4925
lclavicle 4.87022e-014 3.10104e-014
lhumerus -48.8824 21.0248 59.3538
lradius 40.7078
lwrist -8.30906
lhand -4.70327 -30.908
lfingers 7.12502
lthumb 21.0785 -2.03362
rfemur -2.15836 -0.85167 29.1804
rtibia 21.6349
rfoot -23.9299 -30.8158
rtoes -4.43462
lfemur -38.874 -13.9918 -3.46785
ltibia 29.3911
lfoot -18.9674 21.8122
ltoes -3.35512
1869
root 9.91493 15.0602 -35.5972 8.39936 -11.5978 -3.72698
lowerback 17.3966 2.58813 3.19765
upperback 0.291211 4.29534 2.4963
thorax -9.41841 1.96055 -0.181614
lowerneck -3.96472 -0.0456217 -2.41555
upperneck -4.29568 -0.0151685 -1.2247
head -0.656588 0.0315657 0.0209771
rclavicle 6.36111e-015 5.56597e-015
rhumerus -30.019 0.787912 -72.5652
rradius 30.7431
rwrist 21.0612
rhand -3.91337 -54.9913
rfingers 7.12502
rthumb 21.8371 -83.7792
lclavicle 6.36111e-015 5.56597e-015
lhumerus -47.844 21.9026 60.7246
lradius 40.8295
lwrist -8.57018
lhand -4.48697 -31.0923
lfingers 7.12502
lthumb 21.2863 -2.2413
rfemur -1.76171 -0.713618 29.1732
rtibia 21.4111
rfoot -23.8488 -30.6898
rtoes -4.80553
lfemur -38.8761 -13.7692 -3.33024
ltibia 29.6978
lfoot -18.783 21.8954
ltoes -4.81148
1870
root 9.94537 15.057 -35.5254 8.48839 -11.9209 -3.97595
lowerback 18.6931 2.42459 3.45891
upperback -0.275097 4.20131 2.2228
thorax -10.7422 1.8573 -0.675849
lowerneck -3.88036 0.105577 -2.28965
upperneck -4.29746 0.189819 -0.838931
head -0.672263 0.130809 0.118604
rclavicle -3.97569e-015 -1.90833e-014
rhumerus -30.1782 1.06856 -73.5539
rradius 31.1328
rwrist 21.9271
rhand -2.32075 -55.8089
rfingers 7.12502
rthumb 23.3657 -84.4106
lclavicle -3.97569e-015 -1.90833e-014
lhumerus -48.3138 21.378 60.4325
lradius 41.1874
lwrist -8.52147
lhand -4.10683 -31.3997
lfingers 7.12502
lthumb 21.6514 -2.59032
rfemur -1.39629 -0.4531 29.1931
rtibia 21.1631
rfoot -24.0309 -30.5329
rtoes -4.32912
lfemur -38.8215 -12.8177 -3.62041
ltibia 30.2718
lfoot -17.481 21.799
ltoes -12.3862
1871
root 9.98026 15.0511 -35.4431 8.63851 -12.2587 -4.18076
lowerback 18.8145 2.46767 3.42064
upperback -0.261642 4.25026 2.18072
thorax -10.7938 1.87929 -0.719112
lowerneck -3.99739 0.135821 -2.23329
upperneck -4.70963 0.230792 -0.653575
head -0.779988 0.153372 0.166172
rclavicle -1.82882e-014 1.23246e-014
rhumerus -29.6363 1.38281 -74.1887
rradius 31.2464
rwrist 20.9495
rhand -3.48142 -55.2064
rfingers 7.12502
rthumb 22.2519 -83.9454
lclavicle -1.82882e-014 1.23246e-014
lhumerus -47.9428 21.1951 60.9427
lradius 41.5147
lwrist -8.61772
lhand -3.77948 -31.3594
lfingers 7.12502
lthumb 21.9657 -2.58658
rfemur -1.03938 -0.315605 29.1158
rtibia 20.8213
rfoot -24.0484 -30.2888
rtoes -4.4717
lfemur -38.8653 -11.7889 -4.03697
ltibia 30.9982
lfoot -16.2921 21.2974
ltoes -16.6076
1872
root 10.0086 15.0439 -35.3888 9.42497 -12.169 -4.30116
lowerback 17.4199 2.59142 2.87718
upperback 0.21443 4.23633 2.45356
thorax -9.53691 1.94332 -0.0361026
lowerneck -4.26337 0.0905574 -2.37408
upperneck -5.8645 0.166131 -0.661681
head -1.09347 0.134599 0.187351
rclavicle 6.16232e-015 4.69132e-014
rhumerus -28.061 1.48877 -74.229
rradius 31.705
rwrist 21.0969
rhand -1.77971 -56.4806
rfingers 7.12502
rthumb 23.8847 -85.0153
lclavicle 6.16232e-015 4.69132e-014
lhumerus -46.538 21.4856 62.4174
lradius 41.823
lwrist -8.61336
lhand -3.57959 -31.0711
lfingers 7.12502
lthumb 22.1576 -2.32093
rfemur -1.52637 -0.390695 29.1186
rtibia 20.5453
rfoot -23.8559 -30.3254
rtoes -5.01729
lfemur -39.8714 -10.4455 -4.46761
ltibia 31.8256
lfoot -15.011 19.969
ltoes -16.985
1873
root 10.0438 15.0382 -35.3041 9.28692 -12.5973 -4.50137
lowerback 19.3923 2.60864 3.06768
upperback -0.59419 4.39417 2.09466
thorax -11.5131 1.94292 -0.691333
lowerneck -3.95169 0.147668 -2.12163
upperneck -5.75543 0.247011 -0.159598
head -1.11231 0.164912 0.300035
rclavicle -1.23246e-014 1.35174e-014
rhumerus -29.0988 2.01153 -75.5032
rradius 32.3305
rwrist 20.2938
rhand -2.36147 -56.5915
rfingers 7.12502
rthumb 23.3267 -85.1982
lclavicle -1.23246e-014 1.35174e-014
lhumerus -47.2254 19.8814 62.3787
lradius 42.4682
lwrist -7.97028
lhand -3.29056 -30.7914
lfingers 7.12502
lthumb 22.4351 -2.0744
rfemur -0.933995 -0.426536 28.9895
rtibia 20.3196
rfoot -23.5724 -30.1968
rtoes -6.65248
lfemur -39.6522 -9.49052 -4.92968
ltibia 32.7553
lfoot -14.635 18.699
ltoes -14.9577
